<svg width="242" height="202" viewBox="0 0 242 202" fill="none" xmlns="http://www.w3.org/2000/svg">
<g clip-path="url(#clip0)">
<path opacity="0.1" d="M171.993 201.998C185.647 201.998 196.715 200.905 196.715 199.557C196.715 198.209 185.647 197.116 171.993 197.116C158.339 197.116 147.27 198.209 147.27 199.557C147.27 200.905 158.339 201.998 171.993 201.998Z" fill="#61A199"/>
<path opacity="0.1" d="M105.951 2.95476C116.839 -1.09837 130.095 2.38747 141.415 7.47138C176.968 23.4425 202.869 53.7601 223.448 84.6475C230.899 95.8316 237.977 107.508 240.778 119.993C246.481 145.406 231.606 171.714 206.307 180.933C197.704 184.071 188.252 185.358 178.786 186.075C161.953 187.352 144.524 186.845 127.827 182.116C115.918 178.736 104.654 173.3 93.8499 167.294C63.677 150.511 36.122 128.718 16.2808 102.096C7.57869 90.4194 0.216869 77.2557 0.00474057 63.7831C-0.207388 50.3105 8.55978 36.7727 22.9845 34.4818C28.9482 33.5355 35.2566 34.5204 41.4108 35.5343C50.472 37.0286 59.6562 38.6001 68.6138 37.9483C77.8679 37.27 89.9038 33.649 91.5912 24.8016C93.3774 15.3025 95.0768 7.00307 105.951 2.95476Z" fill="#61A199"/>
<path d="M58.8223 185.592C58.8223 185.592 70.4556 184.89 69.084 193.054C69.084 193.054 69.3564 194.502 68.0499 195.152C68.0499 195.152 68.0306 194.546 66.8567 194.751C66.4397 194.823 66.0156 194.844 65.5935 194.814C65.0228 194.774 64.4804 194.549 64.0484 194.174C64.0484 194.174 60.7773 192.822 59.5069 187.468C59.5069 187.468 58.5644 186.302 58.603 186L60.5651 186.84C60.5651 186.84 59.895 188.26 60.4229 189.438C60.4229 189.438 60.4856 186.893 60.8641 186.951C60.9388 186.963 61.8837 187.434 61.8837 187.434C61.8837 187.434 60.7291 189.903 61.5993 191.699C61.5993 191.699 61.269 188.655 62.2429 187.613L63.6265 188.421C63.6265 188.421 62.2766 190.973 63.1926 193.054C63.1926 193.054 62.9516 189.86 63.9158 188.617L65.1693 189.582C65.1693 189.582 63.9013 192.098 64.6751 193.826C64.6751 193.826 64.774 190.106 65.4393 189.826C65.4393 189.826 66.5361 190.792 66.7024 191.193C66.7024 191.193 65.8346 193.018 66.3722 193.981C66.3722 193.981 66.7024 191.504 66.9748 191.492C66.9748 191.492 68.0644 193.133 68.1801 194.258C68.1801 194.258 68.1319 192.585 67.2375 191.335C67.2375 191.335 68.2934 191.516 68.9105 192.202C68.9105 192.202 68.7393 191.04 66.97 190.939C66.97 190.939 66.0684 189.696 65.825 189.619C65.825 189.619 67.5871 189.471 68.6549 189.947C68.6549 189.947 67.7148 188.851 65.5019 189.348L64.2653 188.339C64.2653 188.339 66.5867 188.021 67.5678 188.373C67.5678 188.373 66.4372 187.407 63.9327 188.11L62.5876 187.304C62.5876 187.304 64.5642 186.876 65.743 187.031C65.743 187.031 64.4992 186.36 62.1923 187.086L61.228 186.654C61.228 186.654 62.6744 186.369 63.101 186.323C63.5277 186.278 63.547 186.162 63.547 186.162C62.6294 186.008 61.6872 186.112 60.8255 186.464C60.8255 186.464 58.7862 185.732 58.8223 185.592Z" fill="#61A199"/>
<path opacity="0.1" d="M66.835 197.257C71.3828 197.257 75.0695 196.633 75.0695 195.864C75.0695 195.094 71.3828 194.471 66.835 194.471C62.2873 194.471 58.6006 195.094 58.6006 195.864C58.6006 196.633 62.2873 197.257 66.835 197.257Z" fill="#61A199"/>
<path d="M43.2381 180.1C43.2381 180.1 49.7972 179.704 49.0234 184.308C49.0643 184.541 49.0301 184.781 48.9256 184.994C48.8212 185.207 48.652 185.381 48.4425 185.491C48.4425 185.491 48.4304 185.15 47.77 185.266C47.5352 185.306 47.2964 185.318 47.0589 185.3C46.7363 185.28 46.4294 185.153 46.1862 184.94C46.1862 184.94 44.3446 184.175 43.6214 181.158C43.6214 181.158 43.0911 180.499 43.1104 180.33L44.2192 180.812C44.2192 180.812 43.8408 181.614 44.1373 182.278C44.1373 182.278 44.1734 180.841 44.3783 180.875C44.4217 180.875 44.9544 181.153 44.9544 181.153C44.9544 181.153 44.3036 182.546 44.7953 183.567C44.7953 183.567 44.6073 181.85 45.1569 181.261L45.9355 181.718C45.9355 181.718 45.1762 183.166 45.6945 184.329C45.6945 184.329 45.5619 182.529 46.1019 181.829L46.8082 182.379C46.8082 182.379 46.085 183.796 46.5309 184.771C46.5309 184.771 46.5864 182.674 46.9624 182.517C46.9624 182.517 47.5795 183.062 47.6735 183.287C47.6735 183.287 47.1914 184.315 47.4879 184.858C47.4879 184.858 47.6735 183.463 47.8278 183.456C47.8278 183.456 48.4425 184.38 48.5052 185.015C48.4744 184.429 48.2917 183.86 47.9749 183.366C48.3295 183.431 48.6572 183.599 48.9174 183.849C48.9174 183.849 48.8234 183.195 47.823 183.137C47.823 183.137 47.3144 182.435 47.1794 182.393C47.1794 182.393 48.1725 182.309 48.7752 182.577C48.7752 182.577 48.2448 181.959 46.9962 182.239L46.2995 181.669C46.2995 181.669 47.6085 181.491 48.1629 181.689C48.1629 181.689 47.5241 181.143 46.1115 181.541L45.3546 181.085C45.9377 180.958 46.5349 180.906 47.1312 180.933C47.1312 180.933 46.4321 180.554 45.1304 180.964L44.588 180.723C44.588 180.723 45.4052 180.561 45.6439 180.537C45.8825 180.513 45.897 180.445 45.897 180.445C45.3791 180.359 44.8477 180.419 44.3615 180.617C44.3615 180.617 43.2189 180.18 43.2381 180.1Z" fill="#61A199"/>
<path opacity="0.1" d="M47.7553 186.676C50.3194 186.676 52.398 186.323 52.398 185.889C52.398 185.454 50.3194 185.102 47.7553 185.102C45.1912 185.102 43.1125 185.454 43.1125 185.889C43.1125 186.323 45.1912 186.676 47.7553 186.676Z" fill="#61A199"/>
<path d="M204.603 184.525C204.603 184.525 212.521 184.042 211.593 189.594C211.641 189.876 211.598 190.166 211.472 190.423C211.346 190.679 211.142 190.89 210.89 191.024C210.89 191.024 210.875 190.611 210.077 190.751C209.793 190.799 209.504 190.813 209.217 190.792C208.828 190.767 208.459 190.614 208.166 190.357C208.166 190.357 205.938 189.437 205.073 185.792C205.073 185.792 204.432 184.998 204.458 184.795L205.794 185.365C205.794 185.365 205.338 186.331 205.697 187.134C205.697 187.134 205.741 185.401 205.996 185.445C206.049 185.445 206.69 185.778 206.69 185.778C206.69 185.778 205.904 187.468 206.497 188.675C206.497 188.675 206.273 186.603 206.936 185.894L207.876 186.442C207.876 186.442 206.958 188.18 207.582 189.597C207.582 189.597 207.421 187.424 208.064 186.577L208.918 187.243C208.918 187.243 208.055 188.955 208.58 190.14C208.58 190.14 208.65 187.61 209.103 187.417C209.103 187.417 209.848 188.076 209.961 188.346C209.961 188.346 209.371 189.59 209.737 190.246C209.737 190.246 209.961 188.556 210.147 188.556C210.147 188.556 210.89 189.674 210.967 190.439C210.931 189.732 210.711 189.046 210.328 188.45C210.756 188.531 211.152 188.736 211.466 189.039C211.466 189.039 211.35 188.25 210.142 188.18C210.142 188.18 209.53 187.332 209.366 187.282C209.366 187.282 210.571 187.18 211.294 187.504C211.294 187.504 210.653 186.76 209.147 187.098L208.305 186.41C208.305 186.41 209.884 186.193 210.554 186.432C210.554 186.432 209.783 185.773 208.079 186.253L207.163 185.705C207.163 185.705 208.508 185.416 209.311 185.519C209.311 185.519 208.464 185.063 206.9 185.558L206.244 185.264C206.244 185.264 207.23 185.068 207.52 185.039C207.809 185.01 207.823 184.928 207.823 184.928C207.199 184.824 206.558 184.895 205.972 185.133C205.972 185.133 204.579 184.617 204.603 184.525Z" fill="#61A199"/>
<path opacity="0.1" d="M210.055 192.467C213.151 192.467 215.66 192.042 215.66 191.518C215.66 190.994 213.151 190.57 210.055 190.57C206.96 190.57 204.451 190.994 204.451 191.518C204.451 192.042 206.96 192.467 210.055 192.467Z" fill="#61A199"/>
<path d="M196.713 125.92C196.561 125.07 196.473 124.21 196.45 123.347C196.45 122.311 195.045 121.394 195.045 121.394C195.045 121.394 194.177 119.383 193.598 119.086C193.02 118.789 191.234 116.158 191.234 116.158C191.213 115.639 191.024 115.14 190.696 114.738C190.161 114.034 189.672 113.295 189.233 112.527C188.992 112.232 189.112 112.025 188.751 110.308C188.732 110.219 188.71 110.132 188.683 110.05C188.683 110.012 188.659 109.978 188.645 109.939C189.028 109.554 189.296 109.068 189.417 108.537C189.537 108.006 189.506 107.452 189.327 106.939C189.262 106.734 189.144 106.551 188.985 106.407C188.577 106.074 187.926 106.212 187.507 105.896L187.953 103.921C188.059 103.438 188.114 102.827 187.693 102.567C187.534 102.492 187.368 102.436 187.196 102.4C186.473 102.159 186.053 101.394 185.865 100.657C185.685 99.948 185.636 99.2116 185.721 98.4846C185.803 97.7846 186.008 97.1038 186.082 96.4013C186.218 95.102 185.906 93.7952 185.198 92.6982C184.922 92.2248 184.516 91.841 184.029 91.5926C183.583 91.3922 183.064 91.3512 182.647 91.1098C181.751 90.5377 181.796 89.1786 181.08 88.3989C180.365 87.6191 179.097 87.6215 178.053 87.8895C177.009 88.1575 175.97 88.6137 174.9 88.5002C174.21 88.423 173.564 88.1092 172.873 88.0368C172.675 88.0179 172.475 88.0269 172.28 88.0633V88.0416C171.769 88.1333 171.298 88.4182 171.178 88.9034C171.151 89.0188 171.14 89.1374 171.144 89.2558C171.144 89.5383 171.212 89.8328 171.217 90.1032C171.225 90.2106 171.213 90.3187 171.179 90.4211C171.146 90.5235 171.092 90.6181 171.021 90.6994C170.884 90.8467 170.681 90.9239 170.539 91.076C170.481 91.1342 170.436 91.2035 170.405 91.2799C170.375 91.3563 170.361 91.4381 170.363 91.5202C170.363 91.9499 170.898 92.3289 171.257 92.5027H171.272C171.176 92.5993 171.079 92.7006 170.99 92.8044C169.96 93.969 169.392 95.4711 169.394 97.0266C169.403 98.2829 169.778 99.5093 170.474 100.555C171.169 101.601 172.155 102.42 173.309 102.912L173.258 103.069C173.157 103.379 173.038 103.684 172.904 103.981C172.655 103.897 172.39 103.869 172.128 103.898C171.867 103.927 171.615 104.013 171.39 104.15C170.701 104.633 169.353 104.595 168.994 104.505C168.635 104.416 164.896 103.943 164.595 104.061C164.293 104.179 163.698 103.648 163.31 104.358C162.922 105.068 162.741 105.451 162.346 105.63C161.95 105.809 161.268 106.369 161.36 106.487C161.451 106.605 160.371 107.315 160.371 107.315C160.371 107.315 159.443 108.281 158.906 108.409C158.368 108.537 157.231 109.268 157.231 109.268L155.912 110.301C155.912 110.301 154.926 110.451 155.225 109.77C155.524 109.089 154.685 108.232 154.685 108.232C154.685 108.232 153.01 104.831 153.01 104.129C153.01 103.426 151.633 100.43 151.633 100.43L151.464 100.413L151.387 100.194C151.134 99.4816 150.806 98.6077 150.556 98.096C150.074 97.1183 149.777 97.0169 149.777 97.0169C149.777 97.0169 143.972 92.6524 140.202 93.9825C136.432 95.3126 147.085 99.2764 148.042 99.6916C148.377 99.8365 148.618 100.305 148.786 100.853C147.937 101.263 147.222 101.907 146.725 102.709C146.725 102.709 149.03 107.824 149.09 109.097C149.15 110.369 150.676 113.925 150.676 113.925C150.676 113.925 151.245 116.558 154.326 116.409C154.326 116.409 158.576 117.191 159.504 116.409C160.432 115.627 161.268 115.013 161.719 114.924C162.05 114.815 162.342 114.609 162.555 114.333C162.555 114.333 161.15 123.204 160.461 123.974C159.771 124.744 153.68 134.705 155.866 136.486C157.598 137.829 159.428 139.039 161.34 140.107C161.526 140.199 162.083 139.269 162.878 138.61C162.878 138.777 162.878 138.946 162.878 139.125C162.893 142.668 163.361 148.057 164.007 149.264C164.971 151.038 164.575 154.468 164.575 154.468C165.082 154.707 165.633 154.839 166.193 154.857C166.222 154.973 166.256 155.098 166.287 155.219C166.815 157.215 167.671 160.303 168.107 161.124C168.765 162.367 169.242 166.302 169.242 166.302C169.242 166.302 169.633 170.164 169.483 170.707C169.425 170.912 169.679 172.52 170.076 174.57C169.835 177.343 169.377 182.69 169.3 184.624C169.3 184.66 169.3 184.696 169.3 184.73V184.764C169.301 184.786 169.301 184.808 169.3 184.829C169.3 184.873 169.3 184.911 169.3 184.948C169.293 185.069 169.297 185.191 169.315 185.312C169.344 185.496 169.33 185.685 169.274 185.862C169.103 186.397 168.886 186.916 168.625 187.412C168.515 187.656 168.419 187.906 168.336 188.161C168.095 188.267 167.801 188.525 167.637 189.155C167.338 190.309 166.89 193.5 166.89 193.5C166.89 193.5 166.709 195.453 166.352 195.898C165.995 196.342 165.629 199.12 168.177 199.475C170.725 199.83 171.826 198.123 171.826 198.123L171.737 190.379V190.365C171.789 190.299 171.833 190.229 171.87 190.155V190.135C171.887 190.099 171.906 190.06 171.923 190.017L171.945 189.959L171.983 189.865C171.982 189.854 171.982 189.842 171.983 189.831C172.23 189.089 172.305 188.301 172.2 187.526V187.487V187.427C172.2 187.407 172.2 187.386 172.2 187.366V187.246C172.2 187.231 172.2 187.214 172.2 187.2C172.2 187.148 172.205 187.095 172.214 187.041C172.214 187.041 172.214 187.021 172.214 187.012L172.229 186.917V186.876C172.229 186.845 172.229 186.814 172.248 186.78C172.247 186.772 172.247 186.764 172.248 186.756C172.272 186.645 172.301 186.514 172.333 186.408V186.381L172.369 186.266C172.405 186.142 172.446 186.024 172.489 185.894V185.87C172.489 185.831 172.516 185.792 172.53 185.756V185.742C172.574 185.623 172.619 185.5 172.663 185.399L172.675 185.368L172.713 185.271L172.726 185.242L172.817 185.027L173.523 187.212C173.523 187.212 173.914 188.839 173.704 189.223C173.494 189.607 173.945 191.205 174.242 191.234L173.965 193.245C173.815 194.353 173.725 195.469 173.697 196.588C173.678 196.716 173.658 196.829 173.644 196.907C173.451 197.937 173.914 199.535 173.914 199.535C176.276 202.333 179.092 199.753 179.092 199.753C179.092 199.753 179.42 198.273 179.092 197.978C178.764 197.684 178.911 196.617 178.911 196.617C178.911 196.617 179.06 193.983 179.089 192.062C179.118 190.14 177.52 188.441 177.52 188.441L177.431 188.52C177.139 187.767 176.807 186.888 176.876 186.495C176.997 185.814 176.546 178.628 176.546 178.628C176.713 176.701 176.748 174.765 176.652 172.834C176.691 172.508 176.727 172.187 176.763 171.868C176.944 170.323 177.091 169.003 177.149 168.31V168.228C177.163 168.042 177.171 167.909 177.168 167.847C177.168 167.605 177.168 167.33 177.192 167.028C177.248 166.198 177.378 165.273 177.378 165.273L178.005 161.457C178.005 161.457 178.487 159.593 179.174 158.56L179.256 158.43C179.282 158.384 179.309 158.333 179.338 158.28L179.35 158.258C179.376 158.207 179.405 158.154 179.432 158.099L179.444 158.077C179.54 157.886 179.644 157.667 179.752 157.425C179.752 157.406 179.769 157.389 179.776 157.37L179.858 157.186C179.858 157.162 179.878 157.138 179.89 157.114C179.902 157.09 179.94 156.991 179.967 156.93C179.979 156.906 179.989 156.881 179.998 156.856C180.029 156.783 180.063 156.708 180.095 156.631L180.14 156.52C180.162 156.465 180.186 156.409 180.21 156.353L180.268 156.206C180.285 156.17 180.299 156.134 180.314 156.098L180.379 155.931C180.379 155.907 180.401 155.88 180.41 155.856C180.581 155.429 180.745 155.006 180.892 154.623C180.938 154.502 180.984 154.381 181.025 154.275C182.558 154.369 183.599 154.454 183.599 154.454C183.599 154.454 184.082 150.994 183.927 148.718C183.826 147.163 184.115 145.208 184.306 144.131C184.327 144.013 184.347 143.907 184.366 143.81L184.407 143.844C185.157 144.435 185.694 142.483 185.694 142.483C185.694 142.483 185.492 140.66 185.212 138.451L185.183 138.231C185.615 138.324 186.052 138.391 186.492 138.432C186.492 138.432 186.733 138.41 187.063 138.369C187.977 138.899 188.941 139.335 189.942 139.673L191.535 136.728C191.834 136.117 192.185 135.533 192.584 134.982C193.066 134.391 194.768 132.498 194.739 132.143C194.71 131.788 195.308 129.746 195.905 128.829C196.503 127.912 196.742 126.067 196.713 125.92ZM190.069 128.167C189.44 128.433 188.842 129.913 188.814 130.357C188.785 130.801 188.124 132.752 187.437 132.988C186.803 133.205 185.593 134.321 185.4 134.499C185.203 134.516 184.978 134.543 184.745 134.581C184.482 132.715 184.221 131.17 184.055 130.859C183.573 129.971 184.583 127.132 184.583 127.132C184.583 127.132 184.682 124.264 185.306 123.583C185.931 122.902 185.788 121.186 185.788 121.186C185.788 121.186 185.938 120.476 185.998 120.153C186.058 119.829 186.887 120.153 186.895 120.153C186.895 120.153 188.51 121.039 188.751 122.369C188.992 123.699 190.756 126.007 190.756 126.007C190.756 126.007 190.486 126.806 190.756 127.214C191.026 127.622 190.699 127.902 190.069 128.167Z" fill="url(#paint0_linear)"/>
<path d="M146.793 102.89C147.284 102.078 148.004 101.43 148.861 101.025C149.718 100.621 150.676 100.479 151.614 100.616V104.071H149.519L147.88 103.655L146.793 102.89Z" fill="#4C4981"/>
<path opacity="0.1" d="M146.793 102.89C147.284 102.078 148.004 101.43 148.861 101.025C149.718 100.621 150.676 100.479 151.614 100.616V104.071H149.519L147.88 103.655L146.793 102.89Z" fill="black"/>
<path d="M151.771 101.531L149.204 103.332C149.204 103.332 149.182 102.972 149.117 102.48C148.989 101.548 148.702 100.15 148.083 99.8799C147.14 99.4647 136.647 95.5105 140.369 94.1804C144.091 92.8503 149.801 97.21 149.801 97.21C149.801 97.21 150.095 97.3114 150.565 98.2842C150.807 98.796 151.137 99.6674 151.385 100.38C151.614 101.022 151.771 101.531 151.771 101.531Z" fill="#AE6E79"/>
<path d="M172.28 104.305L172.571 104.167L173.391 105.104L172.721 106.535L171.578 106.077L171.843 104.932L172.28 104.305Z" fill="#4C4981"/>
<path d="M168.396 188.146C168.396 188.146 167.659 188.059 167.364 189.21C167.07 190.362 166.627 193.556 166.627 193.556C166.627 193.556 166.451 195.504 166.096 195.948C165.742 196.392 165.39 199.166 167.895 199.518C170.399 199.871 171.491 198.169 171.491 198.169L171.402 190.427L168.396 188.146Z" fill="#444053"/>
<path d="M177.137 188.493C177.137 188.493 178.714 190.183 178.685 192.1C178.656 194.017 178.506 196.646 178.506 196.646C178.506 196.646 178.362 197.71 178.685 198.005C179.008 198.299 178.685 199.777 178.685 199.777C178.685 199.777 175.912 202.352 173.584 199.559C173.584 199.559 173.131 197.964 173.319 196.935C173.507 195.907 174.032 191.284 174.032 191.284L177.137 188.493Z" fill="#444053"/>
<path d="M181.042 153.193C181.042 153.193 179.451 157.65 178.771 158.683C178.091 159.716 177.624 161.58 177.624 161.58L177.004 165.387C176.883 166.238 176.814 167.096 176.797 167.955C176.826 168.812 175.264 181.297 175.264 181.297L172.788 184.457C172.788 184.457 171.699 186.671 171.875 187.596C172.051 188.52 171.757 189.988 171.393 190.43C171.393 190.43 171.335 193.326 171.245 193.971C171.156 194.615 171.571 196.453 171.245 196.776C170.92 197.1 166.588 196.955 166.47 196.421C166.352 195.888 167.001 193.322 167.001 193.322L167.384 190.842C167.384 190.842 168.15 189.486 167.974 189.042C167.798 188.597 168.297 187.567 168.326 187.477C168.355 187.388 169.153 185.942 169.006 185.382C168.859 184.822 169.934 172.911 169.934 172.911L172.969 151.569L181.042 153.193Z" fill="#AE6E79"/>
<path opacity="0.1" d="M181.042 153.193C181.042 153.193 180.801 153.864 180.471 154.746C179.945 156.136 179.188 158.05 178.771 158.683C178.094 159.716 177.621 161.58 177.621 161.58L177.002 165.389C176.882 166.24 176.814 167.098 176.797 167.957C176.797 168.295 176.57 170.451 176.281 172.935C175.835 176.732 175.264 181.3 175.264 181.3L172.788 184.46C172.788 184.46 172.663 184.701 172.506 185.082C172.195 185.807 171.757 186.982 171.875 187.588C172.051 188.503 171.757 189.978 171.393 190.422C171.393 190.422 171.332 193.319 171.245 193.964C171.159 194.608 171.571 196.443 171.245 196.769C170.92 197.095 166.588 196.947 166.47 196.416C166.352 195.885 167.001 193.317 167.001 193.317L167.384 190.835C167.384 190.835 168.15 189.478 167.972 189.034C167.794 188.59 168.297 187.559 168.326 187.47C168.355 187.381 169.153 185.935 169.006 185.375C168.893 184.947 169.488 177.954 169.765 174.637C169.859 173.594 169.92 172.916 169.92 172.916L172.53 154.555L172.742 153.075L172.955 151.573L181.042 153.193Z" fill="black"/>
<path d="M178.39 197.59C178.417 197.916 174.232 198.389 173.634 198.034C173.036 197.679 173.634 193.281 173.634 193.281L173.907 191.275C173.615 191.243 173.171 189.65 173.376 189.266C173.581 188.882 173.2 187.26 173.2 187.26L172.506 185.088L172.082 183.757C171.392 182.234 170.394 177.889 169.775 174.644C169.384 172.607 169.136 171.002 169.191 170.797C169.339 170.265 168.95 166.398 168.95 166.398C168.95 166.398 168.468 162.471 167.832 161.232C167.4 160.411 166.559 157.329 166.038 155.34C165.773 154.318 165.59 153.585 165.59 153.585C165.59 153.585 170.045 153.21 172.747 153.08C173.989 153.02 174.861 153.012 174.76 153.114C174.659 153.215 174.632 153.756 174.637 154.538C174.649 156.563 174.931 160.127 175.23 161.085C175.642 162.413 176.054 166.396 175.878 166.782C175.702 167.168 175.76 169.734 175.76 169.734C176.064 170.777 176.239 171.853 176.281 172.938C176.375 174.86 176.341 176.787 176.18 178.705C176.18 178.705 176.621 185.879 176.503 186.558C176.385 187.236 177.445 189.363 177.445 189.776C177.445 190.188 177.739 192.993 177.739 192.993C177.739 192.993 178.371 197.266 178.39 197.59Z" fill="#AE6E79"/>
<path d="M180.716 111.361L180.21 111.909L179.88 112.266L177.952 114.342L172.969 114.905L170.317 114.195L169.662 114.019C169.662 114.019 169.662 112.686 169.78 111.088C169.948 109.039 170.351 106.55 171.313 105.872C171.794 105.494 172.179 105.006 172.434 104.45C172.626 104.066 172.787 103.667 172.916 103.257C172.935 103.204 172.95 103.153 172.966 103.1C173.183 102.385 173.34 101.652 173.434 100.911C173.434 100.911 174.071 100.558 174.955 100.148C177.262 99.0688 181.247 97.5794 179.861 100.911C179.657 101.399 179.483 101.898 179.34 102.407C179.318 102.482 179.299 102.557 179.282 102.629C178.819 104.483 179.125 105.608 179.47 106.229C179.528 106.336 179.595 106.439 179.67 106.535C179.764 106.665 179.877 106.78 180.005 106.876L180.579 110.523L180.627 110.825L180.716 111.361Z" fill="#AE6E79"/>
<path opacity="0.1" d="M179.863 101.089C179.6 101.722 179.991 100.573 179.863 101.089C178.812 101.838 176.336 103.969 174.945 103.969C174.005 103.969 173.723 103.798 172.918 103.433C173.162 102.669 173.335 101.885 173.436 101.089C173.436 101.089 181.779 96.4834 179.863 101.089Z" fill="black"/>
<path d="M181.987 97.21C181.986 98.7998 181.397 100.333 180.335 101.514C179.273 102.696 177.812 103.442 176.233 103.61C176.011 103.631 175.787 103.646 175.56 103.646C174.289 103.646 173.047 103.268 171.99 102.561C170.933 101.854 170.109 100.849 169.623 99.6729C169.137 98.4969 169.009 97.2029 169.257 95.9544C169.505 94.706 170.117 93.5593 171.016 92.6592C171.915 91.7591 173.06 91.1462 174.307 90.8978C175.553 90.6495 176.845 90.777 178.02 91.2641C179.194 91.7512 180.198 92.5761 180.904 93.6344C181.61 94.6928 181.987 95.9371 181.987 97.21Z" fill="#AE6E79"/>
<path opacity="0.1" d="M182.9 125.739L181.984 128.131C181.984 128.131 181.24 128.163 180.078 128.199C176.156 128.324 167.514 128.484 167.128 127.475C167.042 127.219 166.996 126.951 166.993 126.68C166.943 125.143 167.659 122.782 167.659 122.782C167.659 122.782 168.071 118.057 168.071 117.852C168.071 117.647 167.716 114.337 167.716 114.337L168.425 111.682L170.399 110.294C170.399 110.294 171.284 111.653 171.814 111.769C172.345 111.885 173.053 112.539 173.053 112.539C173.053 112.539 174.791 113.601 175.353 113.01C175.915 112.418 180.275 109.821 180.275 109.821L182.575 112.36L182.9 125.739Z" fill="black"/>
<path d="M182.901 126.106L181.985 128.496C181.985 128.496 181.24 128.529 180.078 128.566H179.965C179.463 128.583 178.89 128.599 178.277 128.612C175.16 128.684 170.867 128.703 168.623 128.37C167.779 128.249 167.227 128.076 167.136 127.839C167.085 127.697 167.049 127.549 167.03 127.4C167.015 127.289 167.005 127.158 167.001 127.045C166.95 125.507 167.666 123.146 167.666 123.146C167.666 123.146 168.078 118.422 168.078 118.217C168.078 118.012 167.724 114.702 167.724 114.702L168.432 112.047L169.79 111.095L170.407 110.661C170.614 110.972 170.841 111.27 171.084 111.554C171.274 111.81 171.529 112.011 171.822 112.136C172.354 112.254 173.061 112.906 173.061 112.906C173.061 112.906 174.799 113.968 175.36 113.377C175.787 112.925 178.439 111.301 179.663 110.56C180.039 110.33 180.283 110.188 180.283 110.188L180.591 110.531L182.583 112.727L182.901 126.106Z" fill="white"/>
<path opacity="0.1" d="M151.771 101.531L149.203 103.332C149.203 103.332 149.182 102.972 149.117 102.48C150.385 101.944 151.156 100.759 151.378 100.38C151.614 101.022 151.771 101.531 151.771 101.531Z" fill="black"/>
<path d="M160.791 107.643L160.232 107.494C160.232 107.494 159.316 108.459 158.786 108.587C158.255 108.715 157.137 109.442 157.137 109.442L155.837 110.475C155.837 110.475 154.873 110.625 155.16 109.944C155.447 109.263 154.63 108.409 154.63 108.409C154.63 108.409 152.979 105.015 152.979 104.305C152.979 103.595 151.614 100.616 151.614 100.616C151.614 100.616 149.903 103.952 146.779 102.89C146.779 102.89 149.049 107.996 149.107 109.266C149.165 110.535 150.669 114.077 150.669 114.077C150.669 114.077 151.231 116.706 154.266 116.558C154.266 116.558 158.453 117.338 159.367 116.558C160.28 115.779 161.105 115.165 161.536 115.076C161.968 114.987 162.36 114.487 162.36 114.487V110.977L160.791 107.643Z" fill="#4C4981"/>
<path opacity="0.1" d="M155.543 110.977C155.543 110.977 156.281 113.724 155.808 114.019L155.543 110.977Z" fill="black"/>
<path opacity="0.1" d="M180.078 128.554C176.156 128.679 167.514 128.836 167.128 127.829C167.042 127.573 166.996 127.305 166.993 127.035L179.805 127.711L180.078 128.554Z" fill="black"/>
<path opacity="0.1" d="M181.042 153.193C181.042 153.193 180.801 153.865 180.471 154.746C178.844 154.647 176.689 154.543 174.642 154.528C173.919 154.528 173.21 154.528 172.54 154.553C171.118 154.596 169.888 154.712 169.105 154.934C168.114 155.239 167.079 155.373 166.044 155.33C165.778 154.309 165.595 153.575 165.595 153.575C165.595 153.575 170.05 153.201 172.752 153.07L172.964 151.569L181.042 153.193Z" fill="black"/>
<path d="M184.492 142.388L183.99 143.45C183.99 143.45 183.92 143.767 183.831 144.269C183.643 145.35 183.349 147.301 183.46 148.855C183.607 151.129 183.134 154.581 183.134 154.581C183.134 154.581 172.287 153.667 169.105 154.581C165.923 155.496 164.356 154.581 164.356 154.581C164.356 154.581 164.742 151.158 163.797 149.386C163.153 148.179 162.7 142.791 162.686 139.248C162.686 137.613 162.768 136.375 162.973 136.124C163.621 135.327 166.391 127.356 166.391 127.356L167.022 127.39L168.71 127.479L178.304 127.986L179.81 128.066L179.969 128.549L184.492 142.388Z" fill="#444053"/>
<path d="M189.267 138.845L189.356 139.791C189.356 139.791 184.605 138.241 184.846 136.336C185.087 134.432 184.846 134.647 184.846 134.647L188.664 134.97L189.267 138.845Z" fill="#4C4981"/>
<path opacity="0.1" d="M189.267 138.845L189.356 139.791C189.356 139.791 184.605 138.241 184.846 136.336C185.087 134.432 184.846 134.647 184.846 134.647L188.664 134.97L189.267 138.845Z" fill="black"/>
<path opacity="0.1" d="M158.713 111.74C159.198 112.153 159.77 112.451 160.386 112.611C160.208 112.573 160.042 112.49 159.904 112.37C159.564 112.129 159.241 111.865 158.913 111.609C158.648 111.402 158.318 111.057 157.992 110.972C158.205 111.252 158.447 111.51 158.713 111.74Z" fill="black"/>
<path opacity="0.1" d="M158.785 112.983C158.938 113.156 159.062 113.352 159.152 113.565C159.304 114.166 159.295 114.796 159.125 115.392L158.363 113.553C158.231 113.239 158.098 112.925 157.939 112.626C157.869 112.498 157.43 111.964 157.481 111.853C157.616 111.54 158.643 112.807 158.785 112.983Z" fill="black"/>
<path opacity="0.1" d="M180.039 123.17C180.559 123.107 181.044 122.88 181.425 122.521C180.642 122.62 179.899 122.929 179.128 123.091C178.412 123.257 177.661 123.188 176.988 122.893C177.875 123.327 179.094 123.342 180.039 123.17Z" fill="black"/>
<path opacity="0.1" d="M177.824 117.765C177.683 117.786 177.54 117.751 177.426 117.666C176.838 117.328 176.258 116.976 175.686 116.609C175.129 116.249 174.456 115.885 173.981 115.431C175.151 116.488 176.24 117.381 177.824 117.765Z" fill="black"/>
<path opacity="0.1" d="M179.458 124.027C179.767 124.041 180.077 124.016 180.379 123.953C180.685 123.889 180.956 123.711 181.136 123.455C181.027 123.43 180.912 123.448 180.815 123.506C179.881 123.9 178.856 124.023 177.855 123.861C178.335 124.066 178.95 124.025 179.458 124.027Z" fill="black"/>
<path opacity="0.1" d="M173.876 137.734C173.262 137.919 172.631 138.043 171.993 138.103C171.496 138.126 170.999 138.117 170.503 138.075L168.093 137.922L166.887 137.845C166.745 137.845 166.164 137.845 166.451 137.558C166.596 137.418 167.401 137.507 167.608 137.5C168.008 137.487 168.41 137.48 168.813 137.478C169.611 137.478 170.412 137.478 171.209 137.527C172.104 137.57 172.984 137.638 173.876 137.734Z" fill="black"/>
<path opacity="0.1" d="M171.082 138.929C170.672 138.912 170.144 139.156 169.722 139.209C169.25 139.265 168.775 139.284 168.3 139.265C167.36 139.242 166.432 139.052 165.559 138.705C167.398 138.799 169.242 138.854 171.082 138.929Z" fill="black"/>
<path opacity="0.1" d="M165.918 140.194C166.097 140.23 166.272 140.278 166.444 140.339C167.461 140.628 168.543 140.373 169.577 140.117C169.319 140.505 168.854 140.672 168.389 140.778C167.632 140.97 166.844 140.999 166.075 140.863C165.834 140.814 165.229 140.727 165.111 140.476C164.913 140.107 165.692 140.158 165.918 140.194Z" fill="black"/>
<path opacity="0.1" d="M171.621 142.099C171.926 142.161 172.228 142.242 172.523 142.34C173.668 142.625 174.856 142.234 176.006 141.971C177.388 141.656 178.806 141.525 180.222 141.58C179.969 141.58 179.567 141.802 179.318 141.877C178.993 141.975 178.663 142.067 178.332 142.149C177.684 142.309 177.026 142.439 176.363 142.533C175.025 142.727 173.67 142.786 172.32 142.709C171.703 142.676 170.633 142.738 170.105 142.427C170.562 142.155 171.094 142.04 171.621 142.099Z" fill="black"/>
<path opacity="0.1" d="M172.053 105.69C172.053 105.69 172.111 108.409 171.67 109.649C171.53 110.036 171.313 110.748 171.077 111.547C170.819 112.433 170.537 113.425 170.32 114.202C170.103 114.98 169.958 115.501 169.958 115.501C169.958 115.501 168.963 123.622 168.705 127.491C168.705 127.559 168.705 127.629 168.69 127.694C168.676 127.911 168.652 128.138 168.616 128.373C168.042 132.216 164.732 138.142 163.621 138.615C163.275 138.774 162.958 138.993 162.686 139.26C162.686 137.625 162.768 136.387 162.973 136.136C163.621 135.339 166.391 127.368 166.391 127.368L167.022 127.402C167.008 127.291 166.998 127.161 166.993 127.047C166.943 125.51 167.659 123.149 167.659 123.149C167.659 123.149 168.071 118.424 168.071 118.219C168.071 118.014 167.717 114.704 167.717 114.704L168.425 112.049L169.782 111.098C169.951 109.048 170.354 106.56 171.316 105.881C171.797 105.504 172.182 105.016 172.436 104.459C172.627 104.486 172.28 104.317 172.28 104.317L172.053 105.69Z" fill="black"/>
<path d="M172.571 104.167C172.326 104.083 172.064 104.055 171.806 104.084C171.548 104.113 171.3 104.199 171.079 104.336C170.399 104.819 169.074 104.778 168.719 104.691C168.365 104.604 164.682 104.129 164.38 104.247C164.079 104.365 163.496 103.834 163.112 104.544C162.729 105.253 162.553 105.635 162.17 105.811C161.787 105.987 161.107 106.55 161.206 106.668C161.304 106.786 160.241 107.494 160.241 107.494L162.392 114.494C162.392 114.494 161.006 123.349 160.328 124.117C159.651 124.884 153.637 134.832 155.789 136.604C157.493 137.946 159.297 139.157 161.184 140.225C161.425 140.344 162.274 138.75 163.452 138.248C164.631 137.746 168.288 131.103 168.514 127.325C168.741 123.547 169.782 115.134 169.782 115.134C169.782 115.134 171.05 110.528 171.491 109.287C171.933 108.046 171.875 105.328 171.875 105.328L172.571 104.167Z" fill="#4C4981"/>
<path opacity="0.1" d="M184.492 142.388L183.99 143.45C183.99 143.45 183.92 143.767 183.831 144.269C183.742 144.257 183.658 144.22 183.59 144.16C182.852 143.569 178.528 139.112 178.313 135.156C178.162 132.237 178.234 129.722 178.282 128.602C178.297 128.249 178.311 128.037 178.311 127.991C178.311 127.991 181.671 123.916 181.288 122.473C180.905 121.029 180.02 113.299 180.02 113.299L179.89 112.285L179.666 110.571L179.131 106.424L179.685 106.555C179.779 106.684 179.892 106.799 180.02 106.895L180.594 110.543L182.585 112.739L182.91 126.113L181.994 128.503C181.994 128.503 181.249 128.537 180.088 128.573H179.974L184.492 142.388Z" fill="black"/>
<path d="M186.347 120.312C186.347 120.312 185.523 119.986 185.465 120.312C185.407 120.638 185.258 121.343 185.258 121.343C185.258 121.343 185.405 123.057 184.776 123.735C184.147 124.414 184.053 127.277 184.053 127.277C184.053 127.277 183.06 130.111 183.53 130.997C183.701 131.318 183.966 132.928 184.231 134.859C184.4 136.066 184.566 137.391 184.713 138.603C184.981 140.805 185.181 142.627 185.181 142.627C185.181 142.627 184.648 144.575 183.91 143.984C183.173 143.393 178.848 138.936 178.636 134.98C178.492 132.201 178.549 129.787 178.598 128.597C178.617 128.092 178.636 127.808 178.636 127.808C178.636 127.808 181.996 123.733 181.613 122.287C181.23 120.841 180.345 113.114 180.345 113.114L180.191 111.919L180.025 110.634L179.986 110.352L179.453 106.248C179.547 106.27 182.855 107.018 183.291 107.455C183.727 107.892 186.425 108.517 186.425 108.517C186.831 108.628 187.201 108.846 187.495 109.148C187.79 109.45 187.998 109.826 188.098 110.236C188.124 110.318 188.143 110.405 188.163 110.494C188.517 112.208 188.404 112.413 188.645 112.71C188.886 113.007 186.347 120.312 186.347 120.312Z" fill="#4C4981"/>
<path opacity="0.1" d="M184.733 138.601C183.527 138.359 181.739 137.802 181.78 136.571C181.816 135.419 183.199 135.004 184.248 134.857C184.417 136.059 184.583 137.389 184.733 138.601Z" fill="black"/>
<path d="M188.471 137.987C188.423 138.091 188.23 138.181 187.955 138.26C187.311 138.414 186.656 138.521 185.996 138.581C185.996 138.581 181.898 138.255 181.955 136.394C181.999 135.059 183.85 134.705 184.889 134.625C185.119 134.603 185.35 134.594 185.581 134.596C185.581 134.596 188.647 137.606 188.471 137.987Z" fill="#AE6E79"/>
<path opacity="0.1" d="M188.471 137.988C188.423 138.091 188.23 138.181 187.955 138.26C186.888 136.829 185.398 134.992 184.667 134.83L184.889 134.625C185.119 134.603 185.35 134.594 185.581 134.596C185.581 134.596 188.647 137.606 188.471 137.988Z" fill="black"/>
<path d="M187.439 112.512L188.645 112.691C189.08 113.459 189.563 114.198 190.091 114.905C190.415 115.308 190.601 115.805 190.621 116.322C190.621 116.322 192.391 118.948 192.95 119.243C193.509 119.537 194.365 121.546 194.365 121.546C194.365 121.546 195.751 122.461 195.751 123.494C195.775 124.355 195.864 125.214 196.016 126.062C196.047 126.21 195.811 128.042 195.221 128.959C194.63 129.876 194.039 131.899 194.071 132.261C194.102 132.624 192.42 134.507 191.95 135.096C191.557 135.646 191.212 136.229 190.918 136.838L189.356 139.791C189.356 139.791 186.053 134.919 184.846 134.654C184.846 134.654 186.2 133.355 186.878 133.118C187.555 132.882 188.206 130.946 188.235 130.492C188.264 130.038 188.854 128.573 189.471 128.319C190.089 128.066 190.416 127.788 190.151 127.373C189.886 126.958 190.151 126.166 190.151 126.166C190.151 126.166 188.411 123.863 188.175 122.545C187.938 121.227 186.347 120.331 186.347 120.331L185.434 118.086L187.439 112.512Z" fill="#4C4981"/>
<path opacity="0.1" d="M191.824 123.532C192.491 122.969 193.331 122.65 194.203 122.63C193.644 122.726 193.056 122.849 192.646 123.24C192.485 123.41 192.341 123.594 192.215 123.791C192.075 123.991 190.937 125.44 190.769 125.21C190.486 124.875 191.595 123.728 191.824 123.532Z" fill="black"/>
<path opacity="0.1" d="M189.153 122.135C189.334 122.119 189.507 122.056 189.655 121.951C189.803 121.846 189.92 121.704 189.995 121.538C190.138 121.206 190.227 120.852 190.257 120.491C190.344 119.886 190.465 119.287 190.621 118.697C190.668 118.58 190.688 118.455 190.679 118.329C190.67 118.204 190.633 118.082 190.571 117.973C190.506 117.784 190.419 117.604 190.31 117.437C190.093 117.678 190.031 118.241 189.942 118.564C189.831 118.965 189.729 119.368 189.633 119.771C189.582 119.964 189.182 122.135 189.153 122.135Z" fill="black"/>
<path opacity="0.1" d="M188.11 110.217C187.991 110.372 187.854 110.513 187.702 110.637C187.22 111.021 186.582 111.344 186.521 111.95C186.538 112.147 186.513 112.345 186.449 112.532C186.295 112.797 185.916 112.773 185.615 112.723C185.361 112.7 185.117 112.61 184.909 112.462C184.593 112.191 184.564 111.709 184.323 111.368C184.176 111.193 183.991 111.053 183.782 110.961C183.573 110.868 183.346 110.825 183.118 110.835C182.667 110.82 182.218 110.922 181.768 110.941C181.478 110.956 181.188 110.936 180.902 110.883C180.808 110.869 180.715 110.849 180.623 110.825C180.421 110.775 180.224 110.708 180.035 110.625C179.936 110.586 179.84 110.54 179.748 110.49C179.446 110.334 179.166 110.14 178.916 109.91C178.475 109.505 178.109 108.945 178.145 108.344C178.166 107.974 178.333 107.634 178.386 107.269C178.567 106.226 177.875 105.241 177.125 104.496C176.826 104.199 176.508 103.911 176.209 103.61C175.744 103.18 175.376 102.654 175.131 102.069C174.93 101.447 174.865 100.788 174.939 100.138C175.006 99.4791 175.025 98.8158 174.994 98.1539C174.772 95.8075 172.772 94.0091 170.771 93.0314L170.682 92.9855C171.275 92.3034 172.006 91.7543 172.826 91.3741C173.645 90.9939 174.536 90.7912 175.44 90.7791C176.343 90.7671 177.239 90.9461 178.068 91.3043C178.898 91.6625 179.643 92.192 180.254 92.8581C180.866 93.5243 181.33 94.3121 181.617 95.1701C181.904 96.0281 182.006 96.9371 181.919 97.8376C181.831 98.7381 181.554 99.6099 181.107 100.396C180.66 101.182 180.052 101.865 179.323 102.4C179.302 102.475 179.282 102.55 179.266 102.622C178.803 104.476 179.109 105.601 179.454 106.222C179.548 106.243 182.855 106.992 183.291 107.429C183.727 107.866 186.425 108.491 186.425 108.491C186.835 108.6 187.208 108.818 187.504 109.122C187.801 109.426 188.01 109.804 188.11 110.217Z" fill="black"/>
<path d="M170.257 91.2837C170.39 91.1316 170.59 91.0544 170.725 90.9071C171.142 90.4533 170.725 89.7122 170.877 89.1135C171.041 88.4497 171.856 88.16 172.535 88.23C173.215 88.3 173.851 88.6138 174.531 88.6911C175.587 88.8093 176.609 88.3507 177.638 88.0827C178.668 87.8148 179.912 87.8003 180.62 88.5897C181.329 89.3791 181.281 90.7236 182.163 91.2958C182.57 91.5589 183.084 91.5879 183.525 91.7786C184.008 92.0267 184.408 92.41 184.677 92.8818C185.375 93.9801 185.683 95.2824 185.55 96.5776C185.475 97.2777 185.273 97.9584 185.191 98.6585C185.107 99.3855 185.156 100.122 185.335 100.831C185.521 101.555 185.923 102.337 186.644 102.569C186.811 102.606 186.973 102.662 187.126 102.736C187.543 102.996 187.488 103.61 187.382 104.088L186.953 106.069C187.365 106.383 188.006 106.248 188.399 106.579C188.556 106.723 188.673 106.906 188.736 107.11C188.93 107.664 188.951 108.264 188.797 108.831C188.642 109.397 188.319 109.903 187.871 110.282C187.389 110.666 186.75 110.989 186.69 111.593C186.708 111.79 186.684 111.988 186.618 112.175C186.466 112.44 186.085 112.416 185.784 112.365C185.53 112.342 185.287 112.252 185.08 112.105C184.762 111.834 184.735 111.351 184.494 111.011C184.347 110.836 184.162 110.696 183.953 110.604C183.744 110.511 183.517 110.468 183.289 110.477C182.836 110.463 182.39 110.564 181.936 110.586C180.891 110.629 179.871 110.26 179.094 109.558C178.651 109.15 178.287 108.592 178.321 107.989C178.342 107.622 178.509 107.279 178.562 106.914C178.74 105.874 178.051 104.887 177.301 104.141C176.551 103.395 175.671 102.707 175.305 101.715C174.847 100.486 175.291 99.1147 175.168 97.8112C174.946 95.4623 172.948 93.6663 170.944 92.6862C170.498 92.4569 169.739 91.8751 170.257 91.2837Z" fill="#444053"/>
<path opacity="0.1" d="M186.022 111.556C185.704 111.284 185.677 110.803 185.436 110.463C185.29 110.287 185.105 110.148 184.896 110.055C184.687 109.962 184.46 109.918 184.231 109.927C183.778 109.913 183.33 110.014 182.879 110.036C181.83 110.082 180.805 109.711 180.027 109.005C179.584 108.599 179.222 108.039 179.256 107.438C179.277 107.069 179.444 106.726 179.497 106.364C179.678 105.321 178.986 104.334 178.236 103.588C177.486 102.842 176.609 102.154 176.24 101.162C175.785 99.9354 176.24 98.5642 176.105 97.2582C175.881 94.9094 173.883 93.1133 171.882 92.1332C171.414 91.9039 170.655 91.3221 171.173 90.7307C171.303 90.5786 171.503 90.5014 171.638 90.3541C172.055 89.9027 171.638 89.1592 171.793 88.5629C171.822 88.4442 171.874 88.332 171.945 88.2322C171.441 88.3263 170.98 88.6112 170.857 89.094C170.71 89.6927 171.122 90.4338 170.705 90.8876C170.57 91.0349 170.37 91.1121 170.238 91.2618C169.72 91.8532 170.479 92.4374 170.947 92.6643C172.95 93.6444 174.948 95.4429 175.17 97.7893C175.293 99.0953 174.849 100.466 175.307 101.695C175.674 102.685 176.553 103.385 177.303 104.121C178.053 104.858 178.75 105.852 178.564 106.895C178.462 107.248 178.382 107.607 178.323 107.969C178.289 108.57 178.653 109.13 179.097 109.536C179.873 110.243 180.898 110.613 181.946 110.567C182.399 110.545 182.845 110.446 183.298 110.458C183.527 110.449 183.754 110.493 183.963 110.586C184.172 110.679 184.357 110.819 184.504 110.994C184.745 111.334 184.771 111.817 185.089 112.088C185.297 112.234 185.54 112.323 185.793 112.346C186.094 112.401 186.475 112.421 186.627 112.158C186.681 112.05 186.705 111.93 186.695 111.81C186.452 111.786 186.22 111.699 186.022 111.556Z" fill="black"/>
<path d="M150.932 97.2099H134.258V80.756H150.944L150.932 97.2099ZM150.691 72.4011H134.499C134.499 46.8318 158.768 48.3261 158.768 32.1498C158.768 23.2396 151.486 16.1014 142.589 16.1014C133.691 16.1014 126.412 23.7973 126.412 32.4032H110.232C110.225 28.1459 111.057 23.929 112.68 19.9944C114.304 16.0597 116.687 12.4847 119.693 9.47433C122.699 6.46394 126.269 4.07741 130.198 2.45159C134.127 0.825757 138.338 -0.00738796 142.589 -7.43342e-05C160.461 -7.43342e-05 174.946 14.2788 174.946 32.1498C174.946 52.3768 150.679 54.6798 150.679 72.4011H150.691Z" fill="#61A199"/>
<path opacity="0.1" d="M67.7701 92.3096H63.4697V88.0561H67.7701V92.3096ZM67.705 85.9125H63.5348C63.5348 79.3222 69.7902 79.706 69.7902 75.5322C69.788 74.9861 69.6783 74.4458 69.4675 73.9421C69.2567 73.4385 68.9489 72.9813 68.5616 72.5969C68.1743 72.2124 67.7152 71.9081 67.2105 71.7014C66.7057 71.4947 66.1652 71.3896 65.6199 71.3921C64.5186 71.4176 63.47 71.8694 62.6943 72.6526C61.9185 73.4358 61.4758 74.4895 61.4593 75.5925H57.2891C57.3167 73.4008 58.2034 71.3077 59.7578 69.7646C61.3123 68.2215 63.41 67.3519 65.5988 67.3433C67.7875 67.3348 69.892 68.1879 71.4584 69.7189C73.0248 71.2498 73.9277 73.3359 73.9725 75.5274C73.9604 80.7416 67.705 81.3355 67.705 85.9028V85.9125Z" fill="#61A199"/>
<path opacity="0.1" d="M100.332 121.86H96.0315V117.618H100.332V121.86ZM100.269 115.465H96.099C96.099 108.872 102.354 109.258 102.354 105.085C102.352 104.539 102.243 103.998 102.032 103.495C101.821 102.991 101.513 102.534 101.126 102.15C100.738 101.766 100.279 101.462 99.7745 101.255C99.2698 101.049 98.7293 100.944 98.1841 100.947C97.0782 100.967 96.0234 101.417 95.2429 102.202C94.4624 102.986 94.0173 104.045 94.0018 105.152H89.8315C89.8592 102.96 90.7459 100.867 92.3003 99.3242C93.8548 97.781 95.9525 96.9114 98.1413 96.9029C100.33 96.8943 102.435 97.7475 104.001 99.2785C105.567 100.809 106.47 102.895 106.515 105.087C106.522 110.301 100.269 110.897 100.269 115.465Z" fill="#61A199"/>
<path opacity="0.1" d="M120.132 69.5479H117.015V66.4796H120.132V69.5479ZM120.086 64.9105H117.063C117.063 60.1356 121.598 60.4132 121.598 57.3909C121.596 56.9952 121.516 56.6038 121.363 56.2391C121.21 55.8743 120.987 55.5432 120.706 55.2648C120.426 54.9864 120.093 54.7661 119.727 54.6164C119.361 54.4668 118.97 54.3907 118.575 54.3927C117.775 54.4089 117.012 54.7356 116.448 55.304C115.884 55.8724 115.563 56.6379 115.552 57.4391H112.529C112.523 55.8334 113.154 54.2909 114.283 53.151C115.412 52.0111 116.947 51.367 118.551 51.3606C120.154 51.3542 121.694 51.986 122.833 53.1169C123.971 54.2477 124.614 55.7852 124.621 57.3909C124.616 61.1688 120.086 61.6009 120.086 64.9105Z" fill="#61A199"/>
<path opacity="0.1" d="M173.367 73.8784H171.605V72.1404H173.367V73.8784ZM173.34 71.2592H171.622C171.622 68.5604 174.184 68.7173 174.184 67.0082C174.184 66.7846 174.14 66.5633 174.054 66.357C173.968 66.1507 173.842 65.9636 173.683 65.8064C173.524 65.6492 173.336 65.5252 173.129 65.4414C172.922 65.3576 172.701 65.3158 172.477 65.3184C172.025 65.3277 171.595 65.5123 171.276 65.8334C170.957 66.1544 170.775 66.5868 170.768 67.0395H169.059C169.079 66.1475 169.446 65.2985 170.082 64.6734C170.718 64.0483 171.572 63.6966 172.463 63.6931C173.354 63.6897 174.211 64.0348 174.852 64.6549C175.493 65.275 175.866 66.1211 175.893 67.013C175.903 69.1349 173.34 69.3884 173.34 71.2592Z" fill="#61A199"/>
<path opacity="0.1" d="M200.307 152.93H198.545V151.192H200.307V152.93ZM200.281 150.311H198.572C198.572 147.61 201.136 147.769 201.136 146.06C201.133 145.609 200.951 145.178 200.631 144.861C200.311 144.544 199.878 144.368 199.427 144.37C198.975 144.379 198.544 144.563 198.225 144.884C197.906 145.206 197.725 145.638 197.718 146.091H196.009C196.029 145.199 196.396 144.35 197.032 143.725C197.668 143.1 198.522 142.748 199.413 142.745C200.304 142.741 201.161 143.087 201.802 143.707C202.443 144.327 202.816 145.173 202.843 146.065C202.853 148.196 200.29 148.44 200.29 150.311H200.281Z" fill="#61A199"/>
</g>
<defs>
<linearGradient id="paint0_linear" x1="168.064" y1="200.858" x2="168.064" y2="87.7012" gradientUnits="userSpaceOnUse">
<stop stop-color="#808080" stop-opacity="0.25"/>
<stop offset="0.54" stop-color="#808080" stop-opacity="0.12"/>
<stop offset="1" stop-color="#808080" stop-opacity="0.1"/>
</linearGradient>
<clipPath id="clip0">
<rect width="242" height="202" fill="white"/>
</clipPath>
</defs>
</svg>
